<svg width="164" height="52" viewBox="0 0 164 52" fill="none" xmlns="http://www.w3.org/2000/svg">
<path d="M155.909 2H8.09141C4.72722 2 2 4.86992 2 8.41014V43.0624C2 46.6026 4.72722 49.4725 8.09141 49.4725H155.909C159.273 49.4725 162 46.6026 162 43.0624V8.41014C162 4.86992 159.273 2 155.909 2Z" fill="#00BD6D" stroke="black" stroke-width="3.51648" stroke-miterlimit="10"/>
<path d="M20.462 30.135C22.8896 30.135 24.8576 28.167 24.8576 25.7394C24.8576 23.3117 22.8896 21.3438 20.462 21.3438C18.0344 21.3438 16.0664 23.3117 16.0664 25.7394C16.0664 28.167 18.0344 30.135 20.462 30.135Z" fill="#FFC501" stroke="black" stroke-width="3.51648" stroke-miterlimit="10"/>
<path d="M39.6402 37.2773V30.0475H37.4459V28.247H39.6402V25.9402H37.4459V24.1398H39.6402V17.1912H42.5659L45.2384 24.1398H48.558V17.1912H50.7804V24.1398H52.9747V25.9402H50.7804V28.247H52.9747V30.0475H50.7804V37.2773H47.8265L45.154 30.0475H41.8344V37.2773H39.6402ZM41.8344 28.247H44.4788L43.6349 25.9402H41.7782L41.8344 28.247ZM48.558 33.3107H48.6705L48.5861 30.0475H47.4046L48.558 33.3107ZM41.7782 24.1398H42.9597L41.7782 20.6514H41.6657L41.7782 24.1398ZM46.7294 28.247H48.6142L48.558 25.9402H45.8854L46.7294 28.247ZM54.3325 37.2773L54.3043 34.6329L60.0151 28.6971C63.3909 25.2088 64.4037 23.9147 64.4037 22.1987C64.4037 20.3138 63.194 19.1886 61.2248 19.1886C59.2555 19.1886 57.7646 20.2576 57.1175 22.1424L54.2762 20.5951C55.2608 17.7538 57.9896 15.9815 61.3936 15.9815C65.2758 15.9815 67.9764 18.3727 67.9764 21.8611C67.9764 24.1679 66.6542 26.1934 63.8973 29.0347L58.8898 34.2391H68.3421V37.2773H54.3325ZM70.7336 37.2773L70.7054 34.6329L76.4162 28.6971C79.792 25.2088 80.8048 23.9147 80.8048 22.1987C80.8048 20.3138 79.5951 19.1886 77.6259 19.1886C75.6566 19.1886 74.1657 20.2576 73.5186 22.1424L70.6773 20.5951C71.6619 17.7538 74.3907 15.9815 77.7947 15.9815C81.6769 15.9815 84.3775 18.3727 84.3775 21.8611C84.3775 24.1679 83.0553 26.1934 80.2984 29.0347L75.2909 34.2391H84.7432V37.2773H70.7336ZM95.743 37.6149C90.7355 37.6149 87.3316 33.2826 87.3316 26.7842C87.3316 20.2857 90.7074 15.9815 95.7149 15.9815C100.779 15.9815 104.126 20.3138 104.126 26.7842C104.126 33.2545 100.807 37.6149 95.743 37.6149ZM95.743 34.3516C98.7531 34.3516 100.61 31.4822 100.61 26.7842C100.61 22.1143 98.7531 19.2448 95.7149 19.2448C92.7329 19.2448 90.8762 22.1143 90.8762 26.7842C90.8762 31.454 92.761 34.3516 95.743 34.3516ZM115.056 37.6149C110.049 37.6149 106.645 33.2826 106.645 26.7842C106.645 20.2857 110.021 15.9815 115.028 15.9815C120.092 15.9815 123.44 20.3138 123.44 26.7842C123.44 33.2545 120.12 37.6149 115.056 37.6149ZM115.056 34.3516C118.066 34.3516 119.923 31.4822 119.923 26.7842C119.923 22.1143 118.066 19.2448 115.028 19.2448C112.046 19.2448 110.189 22.1143 110.189 26.7842C110.189 31.454 112.074 34.3516 115.056 34.3516Z" fill="black"/>
<path d="M131.603 35.986C129.303 35.986 127.531 34.2559 127.531 31.9244C127.531 29.593 129.293 27.8734 131.603 27.8734C133.913 27.8734 135.686 29.593 135.686 31.9244C135.686 34.2559 133.913 35.986 131.603 35.986ZM131.603 34.7622C133.185 34.7622 134.346 33.549 134.346 31.9244C134.346 30.3104 133.185 29.0972 131.603 29.0972C130.02 29.0972 128.86 30.3104 128.86 31.9244C128.86 33.549 130.031 34.7622 131.603 34.7622ZM139.561 30.0466C140.827 30.0466 141.703 30.9222 141.703 32.1671V35.8594H140.437V32.4836C140.437 31.7134 139.951 31.2176 139.234 31.2176C138.506 31.2176 138.021 31.7134 138.021 32.4836V35.8594H136.755V30.1732H137.947V30.8589C138.264 30.3315 138.854 30.0466 139.561 30.0466ZM142.823 35.8594V28H144.089V35.8594H142.823ZM149.22 30.1732H150.602L148.07 36.524C147.817 37.1464 147.373 38.1803 145.939 38.1803C145.633 38.1803 145.337 38.1381 145.105 38.0326V36.9671C145.264 37.0093 145.538 37.0515 145.759 37.0515C146.487 37.0515 146.677 36.6295 146.825 36.2814L147.015 35.8383L144.778 30.1732H146.16L147.69 34.1926L149.22 30.1732Z" fill="black"/>
</svg>
